<?xml version="1.0" encoding="utf-8"?>
<!-- Generator: Adobe Illustrator 16.2.1, SVG Export Plug-In . SVG Version: 6.00 Build 0)  -->
<!DOCTYPE svg PUBLIC "-//W3C//DTD SVG 1.1//EN" "http://www.w3.org/Graphics/SVG/1.1/DTD/svg11.dtd">
<svg version="1.1" id="Layer_1" xmlns="http://www.w3.org/2000/svg" xmlns:xlink="http://www.w3.org/1999/xlink" x="0px" y="0px"
	 viewBox="0 0 144 54" enable-background="new 0 0 144 54" xml:space="preserve">
<g>
	<g>
		<g>
			<path fill="#FFFFFF" d="M63.17,15.504v6.194h-3.763V0.362h6.526c5.671,0,8.527,3.127,8.527,7.587
				c0,4.463-2.822,7.555-9.258,7.555H63.17z M60.987,22.24l2.729,1.793h-0.759l-2.696-1.793H60.987z M62.654,22.24l2.705,1.793
				h-0.729l-2.734-1.793H62.654z M63.17,3.825v8.343h2.49c3.521,0,4.733-1.879,4.733-4.219c0-2.333-1.183-4.124-4.733-4.124H63.17z
				 M63.717,22.24v-0.392l3.006,1.971v0.214h-0.426l-2.729-1.793H63.717z M66.723,6.374v0.481l-3.006-2V4.37L66.723,6.374z
				 M63.717,5.463l3.006,2v0.486l-3.006-2V5.463z M63.717,6.557l3.006,2.003v0.484l-3.006-2.001V6.557z M63.717,7.648l3.006,2.003
				v0.487l-3.006-2.004V7.648z M63.717,8.742l3.006,2v0.484l-3.006-2V8.742z M65.689,11.621l-1.973-1.303V9.832l2.672,1.761
				C66.145,11.621,65.934,11.621,65.689,11.621z M64.781,11.621h-0.758l-0.307-0.209v-0.486L64.781,11.621z M63.717,16.389l3.006,2
				v0.486l-3.006-2V16.389z M63.717,17.477l3.006,2.006v0.484l-3.006-2.003V17.477z M63.717,18.573l3.006,1.999v0.488l-3.006-2.002
				V18.573z M63.717,19.666l3.006,2v0.456l-3.006-1.974V19.666z M63.717,20.76l3.006,1.97v0.487l-3.006-1.976V20.76z M64.872,16.053
				l2.702,1.79h-0.731l-2.729-1.79H64.872z M65.359,4.37l2.725,1.789H67.33L64.631,4.37H65.359z M65.778,16.053
				c0.214,0,0.457-0.03,0.669-0.03l2.793,1.82h-0.758L65.778,16.053z M68.996,6.159l-2.672-1.758
				c0.368,0.032,0.67,0.091,0.973,0.152L69.3,5.89l0.183,0.27H68.996z M70.088,17.813l-2.82-1.851l0.607-0.094l2.853,1.885
				L70.088,17.813z M71.486,17.662l-2.886-1.911l0.548-0.152l2.912,1.943L71.486,17.662z M72.76,17.356l-2.974-1.941l0.455-0.181
				l3.005,1.972C73.094,17.268,72.913,17.328,72.76,17.356z M73.821,16.996l-3.006-1.976l0.397-0.211l3.036,2.001L73.821,16.996z
				 M74.766,16.51l-3.036-2.004c0.121-0.059,0.21-0.155,0.331-0.244l3.064,2.035L74.766,16.51z M75.582,15.963l-3.097-2.032
				l0.334-0.273l3.064,2.034L75.582,15.963z M76.252,15.326l-3.067-2.033l0.243-0.303l3.096,2.03L76.252,15.326z M73.945,12.229
				l3.094,2.033c-0.061,0.126-0.123,0.244-0.212,0.336l-3.095-2.033C73.821,12.477,73.881,12.351,73.945,12.229z M76.612,5.797
				l-2.334-1.519c-0.091-0.239-0.215-0.453-0.333-0.696l1.092,0.73C75.643,4.734,76.19,5.223,76.612,5.797z M77.284,13.81
				l-3.097-2.036l0.18-0.361l3.098,2.031L77.284,13.81z M77.465,7.372L74.73,5.551L74.55,4.979l2.638,1.727L77.465,7.372z
				 M77.645,12.955l-3.095-2.029c0.06-0.151,0.06-0.272,0.121-0.425l3.065,2.03L77.645,12.955z M77.857,12.017l-3.062-2.03
				l0.092-0.426l3.029,2.002C77.916,11.714,77.887,11.864,77.857,12.017z M77.857,8.742l-2.914-1.946l-0.089-0.513l2.882,1.881
				L77.857,8.742z M77.976,11.018l-3.032-2.004c0.031-0.15,0.031-0.302,0.031-0.486l3.038,2.003
				C78.013,10.684,78.013,10.834,77.976,11.018z M78.013,9.923l-3.006-1.974c0-0.18,0-0.33-0.032-0.51l2.971,1.969L78.013,9.923z"/>
			<path fill="#FFFFFF" d="M90.701,17.447h-9.162l-1.85,4.251h-3.946L85.76,0.183h0.847l10.015,21.516h-4.033L90.701,17.447z
				 M78.444,22.24l2.731,1.793h-0.758l-2.701-1.793H78.444z M80.05,22.24v-0.025l2.765,1.818h-0.729l-2.732-1.793H80.05z
				 M80.418,21.359l3.124,2.037l-0.18,0.394l-3.097-2.064L80.418,21.359z M80.811,20.515l3.1,2.034l-0.154,0.395l-3.129-2.033
				L80.811,20.515z M81.176,19.666l3.095,2.032l-0.15,0.392l-3.127-2.034L81.176,19.666z M81.539,18.816l3.098,2.064l-0.152,0.36
				l-3.131-2.03L81.539,18.816z M81.902,17.993h0.064l3.064,2.037l-0.186,0.364l-3.094-2.035L81.902,17.993z M82.875,14.447h6.493
				l-3.247-7.347L82.875,14.447z M83.602,17.993l2.733,1.791h-0.761l-2.699-1.791H83.602z M83.756,13.746l0.273,0.152h-0.336
				L83.756,13.746z M83.97,13.262l0.181-0.366l1.547,1.003h-0.76L83.97,13.262z M84.515,12.049l2.821,1.85h-0.76l-2.217-1.457
				L84.515,12.049z M85.273,17.993l2.701,1.791h-0.728l-2.732-1.791H85.273z M84.906,11.197l3.099,2.035l-0.184,0.393l-3.096-2.032
				L84.906,11.197z M87.975,12.627l-2.885-1.885l0.184-0.395l2.396,1.609C87.76,12.168,87.852,12.412,87.975,12.627z M87.276,11.076
				l-1.79-1.184l0.147-0.392l1.339,0.879L87.276,11.076z M86.576,9.561l-0.729-0.517l0.151-0.366l0.306,0.186L86.576,9.561z
				 M86.913,17.993l2.729,1.791h-0.758l-2.702-1.791H86.913z M90.188,2.701l0.301,0.667L87.852,1.61L87.55,0.974L90.188,2.701z
				 M90.551,19.784l-2.729-1.791h0.759l2.486,1.641l0.062,0.15H90.551z M88.246,2.492l2.641,1.755l0.33,0.701l-2.637-1.73
				L88.246,2.492z M89.002,4.067l2.643,1.759l0.331,0.699l-2.637-1.729L89.002,4.067z M90.217,17.993l0.153,0.121l0.302,0.675
				l-1.181-0.796H90.217z M89.732,5.646l2.641,1.763l0.334,0.69l-2.638-1.726L89.732,5.646z M90.488,7.253l2.643,1.729l0.305,0.699
				l-2.608-1.732L90.488,7.253z M91.217,8.831l2.646,1.729l0.33,0.696l-2.638-1.726L91.217,8.831z M91.976,10.41l2.613,1.728
				l0.302,0.702l-2.577-1.734L91.976,10.41z M92.707,11.987l2.61,1.729l0.301,0.696l-2.578-1.729L92.707,11.987z M93.436,13.566
				l2.578,1.698l0.333,0.728l-2.581-1.697L93.436,13.566z M94.164,15.113l2.578,1.697l0.335,0.731l-2.583-1.7L94.164,15.113z
				 M95.014,22.24l2.73,1.793h-0.756l-2.706-1.793H95.014z M94.891,16.721l2.611,1.702l0.305,0.694l-2.578-1.699L94.891,16.721z
				 M95.618,18.272l2.61,1.724l0.336,0.701l-2.643-1.73L95.618,18.272z M96.65,22.24l2.732,1.793h-0.729l-2.732-1.793H96.65z
				 M96.347,19.846l2.608,1.731l0.335,0.663l-2.606-1.695L96.347,19.846z M97.077,21.427l2.608,1.694l0.334,0.698l-2.61-1.697
				L97.077,21.427z"/>
			<path fill="#FFFFFF" d="M117.449,10.501v9.133c0,0-3.19,2.429-8.253,2.429c-7.222,0-12.022-4.734-12.022-11.045
				C97.174,4.855,102.363,0,108.68,0c4.762,0,7.525,1.729,7.525,1.729L114.9,4.948c0,0-2.764-1.397-5.583-1.397
				c-5.007,0-8.071,3.154-8.071,7.525c0,4.277,3.274,7.434,7.705,7.434c1.971,0,3.703-0.426,4.855-0.848v-3.791h-5.949v-3.37
				H117.449z M101.789,10.59l3.038,2.005c0,0.15,0,0.301-0.03,0.452l-3.008-1.971V10.59z M101.822,11.686l2.975,1.939v0.519
				l-2.916-1.944C101.849,12.017,101.822,11.864,101.822,11.686z M104.916,12.017l-3.067-2.001l0.065-0.455l3.091,2.032
				L104.916,12.017z M102.002,12.896l2.853,1.882c0.032,0.184,0.062,0.398,0.121,0.576l-2.79-1.847L102.002,12.896z M105.128,11.076
				l-3.096-2.032c0.032-0.121,0.091-0.276,0.153-0.396l3.064,2.035C105.215,10.807,105.188,10.955,105.128,11.076z M105.462,10.196
				l-3.124-2.032l0.18-0.395l3.127,2.062L105.462,10.196z M102.577,14.388l2.581,1.694l0.244,0.669l-2.309-1.548
				C102.879,14.961,102.73,14.659,102.577,14.388z M105.887,9.408l-3.124-2.064c0.089-0.123,0.148-0.243,0.245-0.332l3.094,2.032
				L105.887,9.408z M106.402,8.648l-3.094-2.064l0.273-0.301l3.098,2.064L106.402,8.648z M107.039,7.981l-3.096-2.032l0.336-0.303
				l3.094,2.031C107.25,7.77,107.131,7.861,107.039,7.981z M107.795,7.372l-3.094-2.03l0.397-0.213l3.065,2.006
				C108.041,7.193,107.924,7.285,107.795,7.372z M106.736,23.063l-1.369-0.908c0.336,0.085,0.703,0.15,1.064,0.21l2.152,1.425
				C107.951,23.609,107.309,23.335,106.736,23.063z M108.65,6.855l-3.035-2l0.455-0.211l3.002,2.001L108.65,6.855z M109.65,6.406
				l-2.971-1.943c0.178-0.062,0.359-0.093,0.54-0.121l2.913,1.914L109.65,6.406z M110.073,24.154l-2.458-1.639
				c0.271,0.033,0.549,0.063,0.825,0.063l2.573,1.697C110.681,24.247,110.377,24.217,110.073,24.154z M110.834,6.105l-2.883-1.918
				c0.213-0.028,0.422-0.061,0.633-0.061l2.854,1.881L110.834,6.105z M108.68,14.413h0.607l2.699,1.795h-0.609L108.68,14.413z
				 M112.078,24.367l-2.701-1.763c0.239,0,0.457-0.025,0.696-0.025l2.763,1.818C112.564,24.397,112.323,24.397,112.078,24.367z
				 M112.197,5.917l-2.729-1.82c0.276,0,0.548,0.03,0.817,0.062l2.641,1.73C112.684,5.89,112.44,5.89,112.197,5.917z
				 M112.926,16.208l-2.729-1.795h0.726l2.336,1.55v0.245H112.926z M113.686,24.367l-2.824-1.852l0.639-0.09l2.885,1.881
				L113.686,24.367z M113.93,5.949l-2.34-1.548l1.275,0.362l2.006,1.342L113.93,5.949z M112.594,14.413l0.664,0.424v0.517
				l-1.392-0.94H112.594z M115.141,24.217l-2.914-1.911l0.548-0.121l2.943,1.94L115.141,24.217z M116.416,23.975l-2.975-1.974
				c0.15-0.029,0.333-0.089,0.488-0.152l3.004,1.971L116.416,23.975z M115.021,21.484l3.035,2.004l-0.459,0.15l-3.035-1.973
				L115.021,21.484z M116.354,6.465l-1.15-0.76l0.15-0.393l2.518,1.67C117.511,6.855,116.994,6.646,116.354,6.465z M115.691,4.463
				l3.094,2.032l-0.158,0.36l-3.09-2.03L115.691,4.463z M118.66,23.246l-3.062-2.005l0.422-0.181l3.066,2.003L118.66,23.246z
				 M116.052,3.582l3.094,2.034l-0.183,0.392l-3.062-2.031L116.052,3.582z M116.416,2.733l3.063,2.03l-0.148,0.397l-3.065-2.032
				L116.416,2.733z M119.633,22.822l-3.094-2.036c0.15-0.063,0.269-0.153,0.395-0.214l3.124,2.032L119.633,22.822z M119.662,4.37
				l-3.094-2.034l0.121-0.271c3.002,2.032,3.034,2.032,3.063,2.032L119.662,4.37z M120.541,22.306l-3.092-2.003l0.363-0.247
				l3.094,2.034L120.541,22.306z M117.993,11.441l3.003,1.973v0.484l-3.003-1.971V11.441z M117.993,12.502l3.003,2.004v0.481
				l-3.003-1.997V12.502z M117.993,13.592l3.003,2.007v0.483l-3.003-2.001V13.592z M117.993,14.688l3.003,2.001v0.486l-3.003-1.973
				V14.688z M117.993,15.781l3.003,2.002v0.489l-3.003-2.005V15.781z M117.993,16.875l3.003,2v0.489l-3.003-1.977V16.875z
				 M117.993,17.964l3.003,2.003v0.486l-3.003-1.973V17.964z M117.993,19.088l3.003,1.973v0.486l-3.003-2.006V19.088z"/>
			<path fill="#FFFFFF" d="M123.653,0.362h13.867v3.463h-10.106v5.977h9.164v3.341h-9.164v5.096h10.106v3.46h-13.867V0.362z
				 M124.473,22.24h0.027l2.702,1.793h-0.03L124.473,22.24z M126.14,22.24l2.734,1.793h-0.764l-2.729-1.793H126.14z M127.81,22.24
				l2.697,1.793h-0.727l-2.729-1.793H127.81z M127.96,4.885l3.006,1.971v0.488l-3.006-1.969V4.885z M127.96,5.979l3.006,1.971v0.489
				l-3.006-1.974V5.979z M130.541,9.256L127.96,7.56V7.07l3.006,1.974v0.212H130.541z M127.96,8.164l1.67,1.092H128.9l-0.94-0.607
				V8.164z M127.96,13.684h0.121l2.885,1.915v0.483l-3.006-1.974V13.684z M127.96,14.719l3.006,1.971v0.486l-3.006-1.973V14.719z
				 M127.96,15.812l2.888,1.882h-0.759l-2.129-1.397V15.812z M129.175,17.694h-0.73l-0.484-0.307v-0.483L129.175,17.694z
				 M130.966,6.256L128.11,4.37h0.764l2.699,1.789h-0.607V6.256z M129.449,22.24l2.729,1.793h-0.755l-2.699-1.793H129.449z
				 M129.719,13.684l2.733,1.793h-0.758l-2.702-1.793H129.719z M130.507,4.37l2.735,1.789h-0.76L129.78,4.37H130.507z
				 M131.119,22.24l2.696,1.793h-0.728l-2.729-1.793H131.119z M131.393,13.684l2.697,1.793h-0.729l-2.728-1.793H131.393z
				 M132.178,4.37l2.703,1.789h-0.727l-2.731-1.789H132.178z M132.756,22.24l2.729,1.793h-0.752l-2.705-1.793H132.756z
				 M133.058,13.684l2.704,1.793h-0.761l-2.701-1.793H133.058z M133.815,4.37l2.735,1.789h-0.76l-2.703-1.789H133.815z
				 M134.424,22.24l2.732,1.793h-0.758l-2.701-1.793H134.424z M134.697,13.684l2.73,1.793h-0.76l-2.697-1.793H134.697z
				 M135.484,4.37l2.699,1.789h-0.729l-2.723-1.789H135.484z M136.092,22.24l2.701,1.793h-0.728l-2.731-1.793H136.092z
				 M136.364,13.684l2.704,1.793h-0.73l-2.729-1.793H136.364z M137.127,4.37l2.731,1.789h-0.727l-2.733-1.789H137.127z
				 M137.734,22.24l2.731,1.793h-0.759l-2.701-1.793H137.734z M140.131,12.595l-3.004-1.976v-0.452l3.004,2.001V12.595z
				 M137.127,11.105l3.004,1.971v0.431l-3.004-1.974V11.105z M137.127,12.017l3.004,1.972v0.484l-3.004-1.971V12.017z
				 M140.009,15.477l-2.882-1.885v-0.482l3.004,1.975v0.393H140.009z M141.071,3.188l-3.006-2.001V0.731l3.006,2.002V3.188z
				 M138.065,1.704l3.006,2.001v0.482l-3.006-2.001V1.704z M138.065,2.793l3.006,2.004V5.28l-3.006-2.001V2.793z M140.768,6.159
				l-2.702-1.789V3.885l3.006,2.005v0.27H140.768z M138.065,19.179l3.006,2.003v0.484l-3.006-2V19.179z M138.065,20.271l3.006,1.969
				v0.489l-3.006-1.97V20.271z M138.065,21.359l3.006,1.976v0.484l-3.006-1.971V21.359z"/>
			<path fill="#FFFFFF" d="M62.64,51.664c-2.519,0-5.036-0.853-6.979-2.035l1.304-3.398c1.761,1.186,3.883,1.914,5.799,1.914
				c2.519,0,3.667-1.245,3.667-2.61c0-1.427-0.787-2.276-4.639-3.702c-4.156-1.516-5.585-3.486-5.585-6.041
				c0-3.218,2.61-6.188,7.159-6.188c2.277,0,4.525,0.669,5.891,1.458l-1.213,3.336c-1.245-0.699-3.127-1.428-4.766-1.428
				c-2.246,0-3.277,1.247-3.277,2.734c0,1.362,1.155,2.215,4.158,3.31c4.762,1.845,6.127,3.73,6.127,6.521
				C70.285,49.328,67.403,51.664,62.64,51.664z M59.634,51.814l1.823,1.212c-0.729-0.303-1.396-0.637-2.033-1.031l-0.639-0.425
				L59.634,51.814z M63.611,37.461l-3.065-2l0.091-0.459l3.098,2.031C63.672,37.189,63.64,37.311,63.611,37.461z M62.306,37.706
				l-1.245-0.82c-0.241-0.271-0.395-0.517-0.485-0.819l2.976,1.973v0.18C63.063,38.039,62.67,37.856,62.306,37.706z M63.978,36.614
				l-3.131-2.066l0.276-0.302l3.094,2.031C64.129,36.398,64.037,36.493,63.978,36.614z M61.852,52.178l2.516,1.64
				c-0.359-0.062-0.728-0.12-1.09-0.213l-2.334-1.546C61.244,52.118,61.545,52.147,61.852,52.178z M64.61,35.939l-3.065-2.029
				l0.428-0.182l3.035,1.975L64.61,35.939z M65.583,35.49l-2.913-1.912c0.182-0.031,0.394-0.059,0.607-0.059h0.059l2.793,1.848
				C65.949,35.398,65.767,35.427,65.583,35.49z M63.491,52.178L66.252,54c-0.242,0-0.516-0.031-0.76-0.031l-2.699-1.762
				C63.034,52.207,63.277,52.178,63.491,52.178z M64.916,52.027l2.85,1.879l-0.637,0.062l-2.82-1.883L64.916,52.027z M66.979,35.308
				l-2.52-1.64c0.428,0.091,0.883,0.213,1.337,0.365l2.034,1.334C67.526,35.34,67.253,35.308,66.979,35.308z M66.1,51.723
				l2.976,1.944c-0.186,0.062-0.368,0.088-0.583,0.121l-2.909-1.914L66.1,51.723z M67.164,51.328l3.029,1.973l-0.486,0.181l-3-1.971
				L67.164,51.328z M68.072,50.842l3.065,2.007l-0.397,0.213l-3.063-2.005C67.83,50.998,67.949,50.902,68.072,50.842z
				 M69.135,35.641l-0.791-0.516l0.148-0.393l2.309,1.545C70.285,36.036,69.742,35.82,69.135,35.641z M68.83,50.266l3.096,2.008
				l-0.331,0.27l-3.067-2.002L68.83,50.266z M71.742,36.277l-3.064-2.031l0.123-0.395l3.095,2.034
				C71.863,36.007,71.805,36.127,71.742,36.277z M69.135,32.969l3.092,2.033c-0.029,0.123-0.09,0.276-0.148,0.396l-3.098-2.031
				L69.135,32.969z M69.497,49.599l3.095,2.001l-0.271,0.309l-3.097-2.005L69.497,49.599z M72.412,34.518l-3.095-2.029l0.118-0.396
				l3.127,2.064C72.533,34.275,72.471,34.396,72.412,34.518z M72.713,33.729l-3.127-2.063l0.121-0.304l3.127,2.035
				C72.805,33.52,72.772,33.641,72.713,33.729z M70.014,48.839l3.098,2.034l-0.214,0.366l-3.123-2.062
				C69.863,49.086,69.922,48.962,70.014,48.839z M72.412,44.349l-2.062-1.363c-0.064-0.091-0.094-0.212-0.156-0.335l0.788,0.516
				C71.564,43.559,72.014,43.954,72.412,44.349z M70.409,47.992l3.096,2.062L73.35,50.42l-3.126-2.031L70.409,47.992z
				 M73.656,49.537l-3.097-2.03c0.062-0.123,0.091-0.273,0.121-0.429l3.035,2.037L73.656,49.537z M73.564,46.201l-2.824-1.853
				l-0.119-0.575l2.638,1.761C73.382,45.747,73.471,45.988,73.564,46.201z M70.801,46.08l3.038,2.003c0,0.15,0,0.306-0.035,0.457
				l-3.032-2.003C70.771,46.381,70.801,46.23,70.801,46.08z M73.804,47.475l-2.971-1.973c0-0.18,0-0.333-0.032-0.516l2.943,1.943
				C73.774,47.115,73.804,47.295,73.804,47.475z"/>
			<path fill="#FFFFFF" d="M76.032,29.967h3.764v21.332h-3.764V29.967z M76.85,51.845h0.516l2.734,1.793h-0.547L76.85,51.845z
				 M78.701,51.845l2.702,1.793h-0.575l-2.734-1.793H78.701z M80.25,51.845l2.729,1.793h-0.758l-2.699-1.793H80.25z M83.345,32.759
				l-3.003-1.971v-0.457l3.003,2.006V32.759z M80.342,31.243l3.003,1.971v0.392l-3.003-1.971V31.243z M80.342,32.242l3.003,1.974
				V34.7l-3.003-1.971V32.242z M80.342,33.332l3.003,1.976v0.483l-3.003-1.973V33.332z M80.342,34.426l3.003,1.973v0.487
				l-3.003-1.974V34.426z M80.342,35.52l3.003,1.971v0.487l-3.003-1.971V35.52z M80.342,36.614l3.003,1.971v0.489l-3.003-1.979
				V36.614z M80.342,37.706l3.003,1.97v0.489l-3.003-1.976V37.706z M80.342,38.797l3.003,1.976v0.482l-3.003-1.974V38.797z
				 M80.342,39.892l3.003,1.971v0.487l-3.003-1.972V39.892z M80.342,40.982l3.003,1.975v0.482l-3.003-1.971V40.982z M80.342,42.076
				l3.003,1.971v0.485l-3.003-1.974V42.076z M80.342,43.166l3.003,1.971v0.486l-3.003-1.971V43.166z M80.342,44.26l3.003,1.971
				v0.486l-3.003-1.973V44.26z M80.342,45.352l3.003,1.971v0.483l-3.003-1.97V45.352z M80.342,46.44l3.003,1.979V48.9l-3.003-1.971
				V46.44z M80.342,47.535l3.003,1.973v0.486l-3.003-1.971V47.535z M80.342,48.627l3.003,1.975v0.484l-3.003-1.971V48.627z
				 M80.342,49.723l3.003,1.971v0.484l-3.003-1.971V49.723z M80.342,50.812l3.003,1.974v0.484l-3.003-1.971V50.812z"/>
			<path fill="#FFFFFF" d="M84.443,29.967h17.932v3.461h-7.012v17.871h-3.79V33.428h-7.13V29.967z M85.261,33.97h0.546l2.701,1.792
				h-0.543L85.261,33.97z M87.11,33.97l2.731,1.792H89.24l-2.705-1.792H87.11z M90.756,35.762l-2.731-1.792h0.759l2.242,1.491v0.301
				H90.756z M90.449,33.97l0.576,0.396v0.484l-1.334-0.881H90.449z M92.391,51.845h0.637l2.702,1.793h-0.636L92.391,51.845z
				 M94.396,51.845l2.731,1.793h-0.699l-2.703-1.793H94.396z M95.912,51.845v-0.06l2.788,1.853h-0.727l-2.729-1.793H95.912z
				 M95.912,34.307l2.998,1.999v0.489l-2.998-2.006V34.307z M95.912,35.398l2.998,2.006v0.482l-2.998-2.001V35.398z M95.912,36.493
				l2.998,2.003v0.483l-2.998-2.005V36.493z M95.912,37.582l2.998,1.971v0.517l-2.998-2.001V37.582z M95.912,38.674l2.998,2.006
				v0.484l-2.998-2.001V38.674z M95.912,39.769l2.998,2.003v0.485l-2.998-1.999V39.769z M95.912,40.857l2.998,2.007v0.487
				l-2.998-2.006V40.857z M95.912,41.951l2.998,2.003v0.485l-2.998-1.999V41.951z M95.912,43.045l2.998,2.002v0.487l-2.998-2.003
				V43.045z M95.912,44.141l2.998,1.998v0.489l-2.998-2.007V44.141z M95.912,45.232l2.998,2.001v0.483l-2.998-2.003V45.232z
				 M95.912,46.325l2.998,1.997v0.488l-2.998-2.004V46.325z M95.912,47.416l2.998,2v0.487L95.912,47.9V47.416z M95.912,48.508
				l2.998,2.003v0.487l-2.998-2.009V48.508z M95.912,49.599l2.998,1.972v0.488l-2.998-1.973V49.599z M95.912,50.691l2.998,1.973
				v0.486l-2.998-1.971V50.691z M97.065,33.97l2.699,1.792h-0.726l-2.736-1.792H97.065z M98.7,33.97l2.734,1.792h-0.761l-2.7-1.792
				H98.7z M100.375,33.97l2.727,1.792h-0.756l-2.702-1.792H100.375z M102.045,33.97l2.699,1.792h-0.729l-2.734-1.792H102.045z
				 M105.927,32.759l-3.003-1.971v-0.457l3.003,2.006V32.759z M102.924,31.271l3.003,2.007v0.481l-3.003-1.974V31.271z
				 M102.924,32.363l3.003,2.003v0.484l-3.003-1.971V32.363z M105.65,35.762l-2.727-1.792v-0.515l3.003,2.006v0.301H105.65z"/>
			<path fill="#FFFFFF" d="M107.025,29.967h13.869v3.461h-10.105v5.975h9.164v3.341h-9.164v5.098h10.105v3.458h-13.869V29.967z
				 M107.851,51.845h0.03l2.695,1.793h-0.026L107.851,51.845z M109.518,51.845l2.73,1.793h-0.76l-2.731-1.793H109.518z
				 M111.186,51.845l2.699,1.793h-0.729l-2.73-1.793H111.186z M111.338,34.484l3.002,1.974v0.487l-3.002-1.972V34.484z
				 M111.338,35.579l3.002,1.974v0.486l-3.002-1.973V35.579z M113.915,38.861l-2.577-1.701v-0.488l3.002,1.975v0.215H113.915z
				 M111.338,37.768l1.668,1.094h-0.726l-0.942-0.612V37.768z M111.338,43.287h0.118l2.884,1.912v0.485l-3.002-1.974V43.287z
				 M111.338,44.318l3.002,1.972v0.489l-3.002-1.974V44.318z M111.338,45.413l2.884,1.882h-0.763l-2.121-1.395V45.413z
				 M112.553,47.295h-0.729l-0.485-0.303v-0.49L112.553,47.295z M114.34,35.855l-2.852-1.886h0.76l2.702,1.792h-0.61V35.855z
				 M112.826,51.845l2.727,1.793h-0.756l-2.701-1.793H112.826z M113.098,43.287l2.729,1.79h-0.758l-2.699-1.79H113.098z
				 M113.885,33.97l2.735,1.792h-0.764l-2.7-1.792H113.885z M114.49,51.845l2.702,1.793h-0.727l-2.733-1.793H114.49z
				 M114.762,43.287l2.705,1.79h-0.729l-2.73-1.79H114.762z M115.553,33.97l2.702,1.792h-0.729l-2.729-1.792H115.553z
				 M116.133,51.845l2.729,1.793h-0.759l-2.699-1.793H116.133z M116.434,43.287l2.7,1.79h-0.759l-2.697-1.79H116.434z
				 M117.192,33.97l2.731,1.792h-0.761l-2.697-1.792H117.192z M117.8,51.845l2.731,1.793h-0.761l-2.699-1.793H117.8z
				 M118.074,43.287l2.729,1.79h-0.756l-2.702-1.79H118.074z M118.862,33.97l2.699,1.792h-0.726l-2.732-1.792H118.862z
				 M119.47,51.845l2.699,1.793h-0.729l-2.729-1.793H119.47z M119.741,43.287l2.701,1.79h-0.73l-2.729-1.79H119.741z M120.502,33.97
				l2.731,1.792h-0.729l-2.733-1.792H120.502z M121.112,51.845l2.724,1.793h-0.756l-2.696-1.793H121.112z M123.505,42.197
				l-3.003-1.978v-0.451l3.003,2.003V42.197z M120.502,40.707l3.003,1.971v0.43l-3.003-1.974V40.707z M120.502,41.619l3.003,1.971
				v0.487l-3.003-1.976V41.619z M123.385,45.077l-2.883-1.884v-0.479l3.003,1.971v0.393H123.385z M124.449,32.789l-3.009-2.001
				v-0.457l3.009,2.006V32.789z M121.44,31.303l3.009,2v0.489l-3.009-2.007V31.303z M121.44,32.393l3.009,2.004v0.486l-3.009-2.003
				V32.393z M124.143,35.762l-2.702-1.792v-0.484l3.009,2.005v0.271H124.143z M121.44,48.781l3.009,2.001v0.486l-3.009-2.003V48.781
				z M121.44,49.873l3.009,1.972v0.489l-3.009-1.974V49.873z M121.44,50.963l3.009,1.975v0.484l-3.009-1.973V50.963z"/>
			<path fill="#FFFFFF" d="M132.803,51.664c-2.521,0-5.041-0.853-6.979-2.035l1.305-3.398c1.758,1.186,3.881,1.914,5.793,1.914
				c2.519,0,3.669-1.245,3.669-2.61c0-1.427-0.79-2.276-4.638-3.702c-4.159-1.516-5.584-3.486-5.584-6.041
				c0-3.218,2.608-6.188,7.16-6.188c2.271,0,4.521,0.669,5.887,1.458l-1.213,3.336c-1.246-0.699-3.129-1.428-4.766-1.428
				c-2.244,0-3.275,1.247-3.275,2.734c0,1.362,1.148,2.215,4.154,3.31c4.77,1.845,6.135,3.73,6.135,6.521
				C140.451,49.328,137.564,51.664,132.803,51.664z M129.797,51.814l1.82,1.212c-0.729-0.303-1.395-0.637-2.032-1.031l-0.636-0.425
				L129.797,51.814z M133.771,37.461l-3.06-2l0.087-0.459l3.097,2.031C133.836,37.189,133.801,37.311,133.771,37.461z
				 M132.467,37.706l-1.239-0.82c-0.245-0.271-0.397-0.517-0.487-0.819l2.971,1.973v0.18
				C133.223,38.039,132.832,37.856,132.467,37.706z M134.137,36.614l-3.127-2.066l0.277-0.302l3.091,2.031
				C134.289,36.398,134.195,36.493,134.137,36.614z M132.016,52.178l2.517,1.64c-0.366-0.062-0.731-0.12-1.095-0.213l-2.336-1.546
				C131.405,52.118,131.709,52.147,132.016,52.178z M134.771,35.939l-3.062-2.029l0.425-0.182l3.038,1.975L134.771,35.939z
				 M135.747,35.49l-2.915-1.912c0.181-0.031,0.391-0.059,0.605-0.059h0.062l2.788,1.848
				C136.109,35.398,135.928,35.427,135.747,35.49z M133.65,52.178L136.416,54c-0.245,0-0.516-0.031-0.764-0.031l-2.701-1.762
				C133.193,52.207,133.438,52.178,133.65,52.178z M135.074,52.027l2.857,1.879l-0.639,0.062l-2.826-1.883L135.074,52.027z
				 M137.143,35.308l-2.52-1.64c0.422,0.091,0.877,0.213,1.336,0.365l2.033,1.334C137.686,35.34,137.414,35.308,137.143,35.308z
				 M136.26,51.723l2.977,1.944c-0.18,0.062-0.365,0.088-0.578,0.121l-2.911-1.914L136.26,51.723z M137.319,51.328l3.041,1.973
				l-0.484,0.181l-3.011-1.971L137.319,51.328z M138.238,50.842l3.061,2.007l-0.394,0.213l-3.066-2.005
				C137.992,50.998,138.11,50.902,138.238,50.842z M139.298,35.641l-0.788-0.516l0.148-0.393l2.31,1.545
				C140.451,36.036,139.903,35.82,139.298,35.641z M138.994,50.266l3.092,2.008l-0.334,0.27l-3.062-2.002L138.994,50.266z
				 M141.908,36.277l-3.067-2.031l0.124-0.395l3.096,2.034C142.024,36.007,141.965,36.127,141.908,36.277z M139.298,32.969
				l3.095,2.033c-0.027,0.123-0.092,0.276-0.154,0.396l-3.097-2.031L139.298,32.969z M139.66,49.599l3.093,2.001l-0.269,0.309
				l-3.098-2.005L139.66,49.599z M142.575,34.518l-3.097-2.029l0.123-0.396l3.126,2.064
				C142.698,34.275,142.639,34.396,142.575,34.518z M142.879,33.729l-3.126-2.063l0.123-0.304L143,33.396
				C142.967,33.52,142.941,33.641,142.879,33.729z M140.175,48.839l3.095,2.034l-0.213,0.366l-3.124-2.062
				C140.023,49.086,140.091,48.962,140.175,48.839z M142.575,44.349l-2.064-1.363c-0.06-0.091-0.091-0.212-0.15-0.335l0.788,0.516
				C141.723,43.559,142.18,43.954,142.575,44.349z M140.572,47.992l3.098,2.062l-0.154,0.366l-3.126-2.031L140.572,47.992z
				 M143.817,49.537l-3.097-2.03c0.062-0.123,0.099-0.273,0.125-0.429l3.031,2.037L143.817,49.537z M143.729,46.201l-2.823-1.853
				l-0.123-0.575l2.645,1.761C143.543,45.747,143.635,45.988,143.729,46.201z M140.968,46.08L144,48.083c0,0.15,0,0.306-0.027,0.457
				l-3.038-2.003C140.935,46.381,140.968,46.23,140.968,46.08z M143.973,47.475l-2.979-1.973c0-0.18,0-0.333-0.026-0.516
				l2.943,1.943C143.943,47.115,143.973,47.295,143.973,47.475z"/>
		</g>
	</g>
	<path fill="#FFFFFF" d="M27,0C12.088,0,0,12.09,0,27s12.088,27,27,27c14.911,0,27-12.09,27-27S41.911,0,27,0z M31.665,45h-6.349
		V17.037l-7.583,2.922l-2.148-5.379L30.127,9h1.538V45z"/>
</g>
</svg>
